<svg width="32" height="32" viewBox="0 0 32 32" fill="none" xmlns="http://www.w3.org/2000/svg">
<rect width="32" height="32" rx="16" fill="#B375BD"/>
<path d="M19.293 10C20.187 10 21.047 10.3533 21.6796 10.9873C22.313 11.62 22.667 12.4733 22.667 13.3667V18.6333C22.667 20.4933 21.1536 22 19.293 22H12.707C10.8463 22 9.33362 20.4933 9.33362 18.6333V13.3667C9.33362 11.5067 10.8396 10 12.707 10H19.293ZM20.047 13.4667C19.907 13.4593 19.7736 13.5067 19.673 13.6L16.667 16C16.2803 16.3207 15.7263 16.3207 15.3336 16L12.3336 13.6C12.1263 13.4467 11.8396 13.4667 11.667 13.6467C11.487 13.8267 11.467 14.1133 11.6196 14.3133L11.707 14.4L14.7403 16.7667C15.1136 17.06 15.5663 17.22 16.0403 17.22C16.513 17.22 16.9736 17.06 17.3463 16.7667L20.3536 14.36L20.407 14.3067C20.5663 14.1133 20.5663 13.8333 20.3996 13.64C20.307 13.5407 20.1796 13.48 20.047 13.4667Z" fill="white"/>
</svg>
