<svg width="17" height="16" viewBox="0 0 17 16" fill="none" xmlns="http://www.w3.org/2000/svg">
<g clip-path="url(#clip0_97_2)">
<path d="M15.1666 7.38662V7.99995C15.1658 9.43757 14.7003 10.8364 13.8395 11.9878C12.9787 13.1393 11.7688 13.9816 10.3902 14.3892C9.01154 14.7968 7.53809 14.7479 6.18957 14.2497C4.84104 13.7515 3.68969 12.8307 2.90723 11.6247C2.12476 10.4186 1.75311 8.99199 1.8477 7.55749C1.94229 6.12299 2.49806 4.7575 3.43211 3.66467C4.36615 2.57183 5.62844 1.81021 7.03071 1.49338C8.43298 1.17656 9.9001 1.32151 11.2133 1.90662" stroke="white" stroke-width="2" stroke-linecap="round" stroke-linejoin="round"/>
<path d="M15.1667 2.66663L8.5 9.33996L6.5 7.33996" stroke="white" stroke-width="2" stroke-linecap="round" stroke-linejoin="round"/>
</g>
<defs>
<clipPath id="clip0_97_2">
<rect width="16" height="16" fill="white" transform="translate(0.5)"/>
</clipPath>
</defs>
</svg>
